# xmcd
#
# Track frame offsets:
#	150
#	13297
#	30415
#	41755
#	58217
#	73305
#	85485
#	101772
#	115640
#	124532
#	141292
#	158560
#	176195
#
# Disc length: 2486 seconds
#
# Revision: 1
# Processed by: cddbd v1.5.2PL0 Copyright (c) Steve Scherf et al.
# Submitted via: audiograbber 1.83.01
#
DISCID=b809b40d
DTITLE=Haddock - Still alive
DYEAR=1900
DGENRE=
TTITLE0=Haddock - Don't pay the ferryman
TTITLE1=Haddock - Carrickfergus
TTITLE2=Haddock - Step it out Mary
TTITLE3=Haddock - The lonesome boatman
TTITLE4=Haddock - Farewell tae the whiskey
TTITLE5=Haddock - The old triangle
TTITLE6=Haddock - The death of Stephen Biko
TTITLE7=Haddock - The mero
TTITLE8=Haddock - The girl with april in her eyes
TTITLE9=Haddock - Steamboat row
TTITLE10=Haddock - The cocky
TTITLE11=Haddock - The reason i left mullingar
TTITLE12=Haddock - Court of the king caractacus
EXTD=
EXTT0=
EXTT1=
EXTT2=
EXTT3=
EXTT4=
EXTT5=
EXTT6=
EXTT7=
EXTT8=
EXTT9=
EXTT10=
EXTT11=
EXTT12=
PLAYORDER=
